# xmcd
#
# Track frame offsets:
#	150
#	17301
#	28915
#	51682
#	66711
#	81826
#	95386
#	114579
#	127289
#	147455
#
# Disc length: 2166 seconds
#
# Revision: 0
# Processed by: cddbd v1.5.1PL0 Copyright (c) Steve Scherf et al.
# Submitted via: EasyCDDAExtractor 7.5.0.1
#
DISCID=9908740a
DTITLE=The Prophets - Patriot Of The Lamb
DYEAR=2003
DGENRE=Gospel
TTITLE0=Patriot Of The Lamb
TTITLE1=Prodigal Son
TTITLE2=City Of Refuge
TTITLE3=Almost Thou Persuadest Me
TTITLE4=Be Thou My Vision
TTITLE5=The Good Ole Gospel Ship
TTITLE6=He Washed My Feet
TTITLE7=Cause You're In My Arms
TTITLE8=I Rest My Case
TTITLE9=Last Blood
EXTD=
EXTT0=
EXTT1=
EXTT2=
EXTT3=
EXTT4=
EXTT5=
EXTT6=
EXTT7=
EXTT8=
EXTT9=
PLAYORDER=
